<?xml version="1.0" standalone="no"?>
<!DOCTYPE svg PUBLIC "-//W3C//DTD SVG 20010904//EN"
 "http://www.w3.org/TR/2001/REC-SVG-20010904/DTD/svg10.dtd">
<svg version="1.0" xmlns="http://www.w3.org/2000/svg"
 width="512.000000pt" height="512.000000pt" viewBox="0 0 512.000000 512.000000"
 preserveAspectRatio="xMidYMid meet">

<g transform="translate(0.000000,512.000000) scale(0.100000,-0.100000)"
fill="#000000" stroke="none">
<path d="M3431 4843 c-46 -6 -101 -19 -122 -27 -22 -9 -47 -16 -57 -16 -9 -1
-35 -9 -57 -20 -22 -11 -45 -19 -52 -20 -15 0 -183 -88 -204 -106 -8 -8 -19
-14 -23 -14 -15 0 -175 -130 -242 -197 -64 -63 -147 -167 -197 -245 -46 -73
-117 -211 -117 -228 0 -5 -9 -29 -19 -52 -42 -94 -90 -333 -91 -448 -1 -85 -2
-86 -116 -62 -143 30 -188 34 -294 22 -180 -19 -278 -46 -412 -114 -187 -95
-359 -270 -457 -463 -29 -59 -51 -112 -51 -126 0 -9 -10 -40 -22 -69 -20 -49
-22 -70 -22 -273 -1 -205 1 -223 22 -273 12 -29 22 -59 22 -68 0 -23 80 -182
125 -249 52 -78 194 -220 268 -268 349 -230 752 -248 1112 -53 79 43 199 141
262 213 116 135 219 326 238 445 3 21 10 40 16 44 15 9 51 -2 90 -28 19 -13
63 -36 99 -51 36 -16 77 -35 92 -43 14 -8 35 -14 46 -14 11 0 44 -9 74 -19 77
-27 248 -51 363 -51 156 1 384 43 493 91 23 10 47 19 52 19 11 0 106 46 163
79 174 99 330 236 443 388 33 43 63 85 67 93 4 8 19 33 32 55 47 77 109 222
134 313 7 23 16 42 21 42 6 0 10 29 10 64 0 56 -3 68 -28 93 -62 67 -138 64
-208 -8 -40 -42 -154 -137 -209 -174 -39 -27 -201 -105 -217 -105 -7 0 -42 -9
-78 -21 -95 -29 -356 -30 -450 0 -36 11 -71 21 -77 21 -22 0 -184 81 -242 121
-142 97 -249 222 -328 381 -24 47 -43 91 -43 98 0 6 -10 39 -22 73 -19 55 -22
82 -22 247 0 166 2 191 22 245 12 32 22 65 22 73 0 20 82 182 121 238 19 27
89 103 157 170 114 113 122 123 122 159 0 25 -9 52 -26 76 -34 49 -73 58 -183
42z m-346 -413 c4 -6 -2 -25 -13 -43 -20 -33 -57 -122 -86 -212 -22 -66 -46
-240 -46 -341 0 -100 22 -248 51 -345 21 -73 86 -216 133 -293 77 -130 251
-304 382 -383 89 -54 163 -93 177 -93 6 -1 30 -9 52 -20 22 -11 47 -20 55 -20
8 0 44 -10 80 -22 58 -19 87 -22 280 -22 232 -1 270 5 438 70 75 29 72 29 72
4 0 -27 -146 -179 -235 -244 -74 -55 -227 -146 -244 -146 -6 0 -30 -9 -53 -19
-137 -62 -372 -92 -556 -72 -64 7 -143 21 -174 32 -32 10 -62 19 -68 19 -12 0
-180 82 -230 112 -56 34 -201 152 -251 205 -55 57 -147 174 -177 223 -34 58
-112 219 -112 234 0 7 -7 30 -15 49 -20 49 -45 221 -45 315 0 137 38 346 79
437 32 70 84 174 99 196 87 134 187 245 290 322 31 23 63 48 70 55 16 15 39
16 47 2z m-1034 -1259 c117 -22 209 -59 233 -93 9 -13 24 -47 32 -76 9 -29 22
-65 30 -80 8 -15 14 -30 14 -34 0 -8 45 -101 71 -148 51 -92 137 -207 226
-302 62 -66 64 -79 33 -218 -22 -98 -37 -138 -85 -225 -56 -103 -141 -196
-237 -261 -94 -63 -127 -80 -218 -111 -68 -24 -90 -26 -235 -27 -147 0 -167 2
-240 26 -136 45 -227 101 -328 202 -101 102 -154 188 -204 336 -23 67 -25 91
-25 225 0 135 2 158 26 227 46 139 98 229 180 316 56 60 144 130 191 153 17 9
39 20 50 26 51 28 112 47 197 63 123 24 164 24 289 1z"/>
<path d="M1839 4486 c-24 -17 -38 -35 -43 -57 -3 -17 -6 -175 -6 -351 0 -351
3 -374 59 -402 67 -35 137 -11 170 57 20 41 21 59 21 356 0 297 -1 315 -20
350 -40 71 -117 90 -181 47z"/>
<path d="M983 4050 c-41 -25 -67 -74 -60 -114 7 -41 163 -314 199 -348 24 -23
38 -28 82 -28 46 0 56 4 84 33 27 28 32 41 32 80 0 41 -11 67 -86 197 -53 94
-98 160 -118 175 -40 30 -89 32 -133 5z"/>
<path d="M114 3490 c-45 -29 -70 -88 -55 -132 18 -52 39 -72 132 -123 20 -11
136 -77 258 -147 234 -135 256 -143 313 -110 40 23 71 84 63 123 -11 51 -52
86 -191 166 -75 43 -152 88 -172 100 -20 12 -50 29 -67 37 -16 9 -48 27 -70
40 -114 69 -159 79 -211 46z"/>
<path d="M99 2537 c-20 -7 -50 -24 -68 -39 -27 -23 -31 -33 -31 -78 0 -45 4
-54 32 -78 17 -15 45 -32 62 -39 40 -15 318 -17 370 -2 59 16 96 61 96 115 0
62 -30 100 -94 119 -61 18 -313 19 -367 2z"/>
<path d="M655 1803 c-11 -3 -27 -11 -35 -18 -8 -8 -26 -19 -40 -25 -14 -6 -42
-21 -62 -33 -20 -12 -115 -67 -210 -121 -95 -55 -184 -108 -198 -118 -27 -21
-59 -73 -60 -97 -1 -33 42 -99 71 -111 59 -25 104 -9 312 111 109 63 221 127
249 142 149 83 181 151 110 236 -22 27 -36 34 -72 36 -25 2 -54 1 -65 -2z"/>
<path d="M3065 1800 c-72 -29 -93 -134 -39 -192 16 -17 43 -37 59 -44 17 -8
47 -24 67 -36 104 -64 446 -257 466 -263 33 -10 88 12 117 46 19 24 25 42 25
79 0 66 -25 87 -243 212 -98 57 -195 113 -215 125 -20 12 -50 29 -67 38 -16 8
-41 22 -55 30 -27 16 -83 19 -115 5z"/>
<path d="M1094 1240 c-24 -9 -59 -53 -95 -115 -38 -68 -50 -89 -75 -130 -55
-93 -67 -146 -43 -198 13 -28 76 -67 108 -67 47 0 97 42 137 115 11 19 31 55
76 133 41 70 68 132 68 153 0 37 -41 97 -73 109 -35 12 -74 12 -103 0z"/>
<path d="M2564 1206 c-36 -16 -74 -72 -74 -108 0 -27 27 -81 106 -213 13 -22
29 -51 36 -65 25 -52 70 -99 104 -110 30 -10 43 -9 80 5 56 21 78 59 72 124
-4 42 -19 72 -95 199 -12 21 -27 47 -32 60 -19 41 -63 93 -92 108 -34 17 -65
17 -105 0z"/>
<path d="M1849 1097 c-60 -40 -59 -38 -57 -420 l3 -349 33 -29 c42 -37 114
-41 157 -7 52 41 55 61 55 395 0 347 -4 369 -72 411 -45 28 -77 28 -119 -1z"/>
</g>
</svg>
